<svg xmlns="http://www.w3.org/2000/svg" xmlns:xlink="http://www.w3.org/1999/xlink" version="1.1" width="800" height="600" viewBox="0 0 800 600">
<defs>
<clipPath id="clip_0">
<path transform="matrix(1,0,0,-1,0,600)" d="M0 600H800V0H0Z"/>
</clipPath>
</defs>
<g id="layer_1" data-name="katman 1">
<g clip-path="url(#clip_0)">
<path transform="matrix(1,0,0,-1,177.8096,413.55659)" d="M0 0C-62.568 0-113.473 50.953-113.473 113.57-113.473 176.187-62.568 227.141 0 227.141 62.568 227.141 113.473 176.187 113.473 113.57 113.473 50.953 62.568 0 0 0M86.19 199.834C63.154 222.895 32.553 235.584 0 235.584-67.229 235.584-121.916 180.849-121.916 113.57-121.916 46.292-67.229-8.443 0-8.443 32.553-8.443 63.179 4.246 86.19 27.307 109.227 50.367 121.892 80.992 121.892 113.57 121.892 146.148 109.227 176.798 86.19 199.834" fill="#1d1d1b"/>
<path transform="matrix(1,0,0,-1,161.167,279.5859)" d="M0 0C6.955-5.954 16.374-10.225 25.477-14.349L25.647-14.422C35.286-18.863 44.413-23.061 51.026-28.893 58.347-35.335 61.446-42.802 60.787-52.393 60.177-61.885 53.125-68.229 46.707-72.061 47.951-69.523 48.635-66.766 48.708-63.837 48.854-53.979 45.072-46.097 37.116-39.703 30.162-34.115 20.937-30.332 12.006-26.647-6.564-19.009-24.11-11.786-23.793 9.542-23.695 17.741-18.766 25.501-9.908 31.382-9.615 31.577-9.322 31.772-9.005 31.968-10.054 29.674-10.64 27.283-10.786 24.769-11.494 14.886-7.956 6.784 0 0M56.663-23.28C48.854-16.301 38.629-11.64 28.722-7.125L28.649-7.101C11.176 .879-3.929 7.785-2.855 24.11-2.392 30.333 2.123 34.091 5.832 36.116 10.005 38.41 15.544 39.777 20.669 39.777 21.279 39.777 21.889 39.752 22.475 39.728 37.385 38.728 49.147 32.407 60.641 19.278L61.324 18.473 62.129 19.156 66.619 23.061 67.425 23.769 66.717 24.574C53.905 39.264 39.996 46.658 22.987 47.805 22.255 47.878 21.474 47.903 20.62 47.903 20.108 47.903 19.546 47.903 18.961 47.878H18.229C7.077 47.878-5.149 44.218-14.446 38.068-25.55 30.723-31.772 20.621-31.943 9.615-32.382-17.155-10.493-26.159 8.809-34.14L8.858-34.164 9.053-34.236C26.135-41.313 40.875-47.414 40.557-63.764 40.411-74.55 24.988-80.504 14.397-80.504H13.958 12.909V-80.528C-2.879-80.065-16.984-73.257-29.015-60.348L-29.747-59.566-30.528-60.274-34.896-64.325-35.677-65.058-34.945-65.838C-21.279-80.553-4.417-88.46 13.836-88.68H14.666C26.453-88.68 39.264-85.507 48.927-80.163 61.031-73.55 68.083-63.91 68.815-53.026 69.645-41.069 65.667-31.333 56.663-23.28" fill="#1d1d1b"/>
<path transform="matrix(1,0,0,-1,376.0815,286.6382)" d="M0 0C-4.441 0-8.809 .732-13.08 2.123-17.326 3.514-20.986 5.588-24.012 8.199L-18.961 16.716C-15.74 14.397-12.567 12.689-9.468 11.494-6.418 10.347-3.319 9.737-.293 9.737 2.392 9.737 4.515 10.225 6.101 11.25 7.687 12.274 8.419 13.69 8.419 15.642 8.419 17.521 7.516 18.937 5.686 19.791 3.856 20.645 .878 21.67-3.197 22.841-6.662 23.817-9.59 24.72-12.006 25.574-14.446 26.428-16.374 27.453-17.912 28.551-19.375 29.649-20.474 30.918-21.133 32.382-21.792 33.847-22.158 35.555-22.158 37.604-22.158 40.289-21.621 42.705-20.571 44.901-19.546 47.024-18.083 48.928-16.203 50.44-14.324 51.954-12.128 53.125-9.566 53.906-7.003 54.687-4.271 55.126-1.293 55.126 2.66 55.126 6.418 54.589 9.883 53.417 13.349 52.271 16.57 50.44 19.425 47.83L13.958 39.605C11.274 41.607 8.663 43.144 6.125 44.047 3.563 45.023 1.074 45.438-1.415 45.438-3.733 45.438-5.612 44.95-7.199 44.047-8.785 43.071-9.517 41.558-9.517 39.484-9.517 38.508-9.322 37.775-8.98 37.166-8.614 36.555-8.004 36.019-7.223 35.53-6.442 35.042-5.344 34.627-4.051 34.188-2.708 33.773-1.074 33.285 .878 32.846 4.515 31.87 7.638 30.967 10.249 29.991 12.86 29.015 14.983 27.99 16.643 26.77 18.278 25.55 19.498 24.159 20.279 22.573 21.06 20.986 21.426 19.107 21.426 16.862 21.426 11.689 19.474 7.565 15.642 4.563 11.835 1.464 6.613 0 0 0" fill="#1d1d1b"/>
<path transform="matrix(1,0,0,-1,425.6191,244.71439)" d="M0 0C-2.807-2.367-4.49-5.588-5.101-9.542H25.55C25.013-5.637 23.354-2.489 20.571-.049 17.766 2.392 14.373 3.612 10.225 3.612 6.198 3.636 2.782 2.44 0 0M37.385-17.96H-4.979C-4.246-21.914-2.294-25.086 .854-27.453 4.026-29.771 7.906-30.918 12.519-30.918 18.473-30.918 23.329-28.966 27.16-25.013L33.92-32.797C31.479-35.726 28.454-37.897 24.744-39.361 21.035-40.826 16.838-41.606 12.226-41.606 6.271-41.606 1.05-40.459-3.465-38.068-7.955-35.701-11.493-32.407-13.934-28.209-16.423-24.012-17.644-19.205-17.644-13.91-17.644-8.614-16.423-3.929-14.056 .317-11.688 4.515-8.346 7.809-4.075 10.176 .171 12.543 4.979 13.714 10.273 13.714 15.569 13.714 20.254 12.567 24.378 10.249 28.503 7.931 31.724 4.661 34.115 .464 36.434-3.733 37.58-8.663 37.58-14.129 37.556-15.105 37.507-16.301 37.385-17.96" fill="#1d1d1b"/>
<path transform="matrix(1,0,0,-1,489.0176,282.8066)" d="M0 0C-4.441 2.367-7.906 5.661-10.396 9.858-12.885 14.056-14.153 18.863-14.153 24.159-14.153 29.502-12.885 34.261-10.396 38.458-7.906 42.656-4.441 45.95 0 48.244 4.441 50.611 9.492 51.782 15.13 51.782 20.474 51.782 25.11 50.684 29.112 48.561 33.114 46.365 36.165 43.266 38.166 39.264L28.429 33.603C26.843 36.091 24.964 37.995 22.597 39.19 20.278 40.459 17.74 41.069 14.935 41.069 10.2 41.069 6.296 39.557 3.196 36.433 .098 33.383-1.488 29.259-1.488 24.134-1.488 19.034 .024 14.885 3.123 11.835 6.174 8.736 10.103 7.199 14.91 7.199 17.643 7.199 20.205 7.809 22.572 9.078 24.891 10.347 26.818 12.177 28.404 14.666L38.142 9.004C36.067 4.929 32.968 1.83 28.966-.366 24.964-2.563 20.327-3.661 15.057-3.661 9.419-3.539 4.441-2.367 0 0" fill="#1d1d1b"/>
<path transform="matrix(1,0,0,-1,573.2803,230.97559)" d="M0 0V-12.055C-1.099-11.884-2.074-11.762-2.929-11.762-7.857-11.762-11.689-13.226-14.471-16.082-17.277-18.937-18.595-23.085-18.595-28.502V-54.735H-31.235V-.61H-19.205V-8.517C-15.569-2.855-9.176 0 0 0" fill="#1d1d1b"/>
<path transform="matrix(1,0,0,-1,599.9033,244.71439)" d="M0 0C-2.807-2.367-4.49-5.588-5.1-9.542H25.55C25.013-5.637 23.354-2.489 20.571-.049 17.766 2.392 14.373 3.612 10.225 3.612 6.198 3.636 2.807 2.44 0 0M37.336-17.96H-5.027C-4.295-21.914-2.343-25.086 .806-27.453 3.978-29.771 7.857-30.918 12.47-30.918 18.424-30.918 23.28-28.966 27.111-25.013L33.871-32.797C31.431-35.726 28.405-37.897 24.695-39.361 20.986-40.826 16.789-41.606 12.177-41.606 6.223-41.606 1.001-40.459-3.514-38.068-8.004-35.701-11.542-32.407-13.982-28.209-16.472-24.012-17.692-19.205-17.692-13.91-17.692-8.614-16.472-3.929-14.104 .317-11.737 4.515-8.395 7.809-4.124 10.176 .122 12.543 4.93 13.714 10.225 13.714 15.521 13.714 20.205 12.567 24.329 10.249 28.453 7.931 31.675 4.661 34.066 .464 36.385-3.733 37.531-8.663 37.531-14.129 37.58-15.105 37.507-16.301 37.336-17.96" fill="#1d1d1b"/>
<path transform="matrix(1,0,0,-1,686.0449,282.6851)" d="M0 0C-1.464-1.22-3.294-2.123-5.417-2.733-7.54-3.343-9.785-3.636-12.177-3.636-18.131-3.636-22.694-2.05-25.916 1.049-29.137 4.148-30.771 8.663-30.771 14.617V40.655H-39.654V50.685H-30.771V63.032H-18.131V50.685H-3.66V40.582H-18.131V14.837C-18.131 12.226-17.473 10.201-16.179 8.81-14.91 7.418-13.007 6.735-10.591 6.735-7.735 6.735-5.417 7.467-3.538 8.98Z" fill="#1d1d1b"/>
<path transform="matrix(1,0,0,-1,396.6777,320.582)" d="M0 0C3.953-3.904 5.905-9.542 5.905-16.984V-47.902H-1.269V-17.717C-1.269-12.177-2.66-7.979-5.393-5.052-8.2-2.123-12.08-.659-17.253-.659-22.963-.659-27.526-2.367-30.87-5.76-34.213-9.176-35.848-13.861-35.848-19.864V-47.781H-43.022V5.417H-36.141V-4.368C-34.188-1.147-31.456 1.415-27.99 3.172-24.525 4.929-20.523 5.856-15.886 5.856-9.249 5.832-3.954 3.88 0 0" fill="#1d1d1b"/>
<path transform="matrix(1,0,0,-1,429.2549,325.8779)" d="M0 0C-3.465-3.294-5.466-7.54-5.905-12.836H31.846C31.357-7.54 29.405-3.294 25.94 0 22.476 3.295 18.156 4.93 12.934 4.93 7.785 4.93 3.466 3.295 0 0M38.605-18.131H-5.905C-5.49-23.67-3.343-28.111 .488-31.528 4.319-34.944 9.176-36.628 15.081-36.628 18.376-36.628 21.401-36.019 24.208-34.871 26.94-33.725 29.381-31.943 31.382-29.649L35.457-34.334C33.091-37.189 30.162-39.313 26.575-40.85 23.061-42.314 19.156-43.095 14.91-43.095 9.444-43.095 4.637-41.948 .391-39.63-3.807-37.312-7.076-34.091-9.468-29.967-11.835-25.817-12.982-21.206-12.982-15.983-12.982-10.811-11.835-6.125-9.565-2.001-7.32 2.147-4.222 5.296-.269 7.614 3.685 9.933 8.126 11.079 13.056 11.079 17.985 11.079 22.427 9.933 26.307 7.614 30.187 5.296 33.285 2.147 35.481-1.928 37.727-6.003 38.825-10.688 38.825-15.91Z" fill="#1d1d1b"/>
<path transform="matrix(1,0,0,-1,508.2959,365.1904)" d="M0 0C-1.343-1.22-3.051-2.123-4.979-2.807-6.979-3.465-9.054-3.782-11.177-3.782-16.155-3.782-19.986-2.44-22.72 .293-25.403 2.978-26.795 6.809-26.795 11.737V43.925H-36.287V50.001H-26.795V61.617H-19.62V50.001H-3.441V43.925H-19.62V12.104C-19.62 8.932-18.839 6.516-17.253 4.856-15.667 3.221-13.373 2.367-10.444 2.367-8.98 2.367-7.517 2.611-6.125 3.099-4.734 3.587-3.563 4.246-2.538 5.101Z" fill="#1d1d1b"/>
<path transform="matrix(1,0,0,-1,583.0654,315.6045)" d="M0 0H8.565L-13.86-52.88H-21.206L-31.846-27.087-42.363-52.88H-49.708L-72.159 0H-63.643L-45.413-44.047-36.531-22.084-45.657-.122H-38.313L-31.797-17.033-25.281-.122H-17.936L-26.989-22.084-18.106-44.047Z" fill="#1d1d1b"/>
<path transform="matrix(1,0,0,-1,601.2939,342.0322)" d="M0 0C0-2.978 .488-5.71 1.514-8.272 2.538-10.835 3.881-13.007 5.589-14.959 7.297-16.911 9.347-18.375 11.665-19.474 13.983-20.571 16.473-21.108 19.083-21.108 21.694-21.108 24.184-20.571 26.502-19.474 28.82-18.375 30.87-16.862 32.651-14.91 34.408-12.958 35.823-10.762 36.775-8.15 37.8-5.588 38.288-2.807 38.288 .122 38.288 3.05 37.8 5.783 36.775 8.395 35.75 11.006 34.408 13.251 32.651 15.203 30.895 17.155 28.894 18.668 26.502 19.767 24.184 20.864 21.694 21.401 19.083 21.401 16.473 21.401 13.983 20.864 11.738 19.767 9.42 18.668 7.419 17.082 5.662 15.154 3.905 13.202 2.489 10.884 1.538 8.346 .562 5.71 0 2.978 0 0M19.156-27.136C15.325-27.136 11.812-26.403 8.639-24.939 5.467-23.476 2.733-21.523 .366-19.034-1.952-16.545-3.758-13.617-5.051-10.322-6.32-7.028-7.003-3.563-7.003 .073-7.003 3.782-6.345 7.32-5.051 10.591-3.709 13.885-1.879 16.789 .415 19.303 2.733 21.792 5.467 23.817 8.688 25.257 11.86 26.721 15.325 27.502 19.083 27.502 22.842 27.502 26.38 26.77 29.527 25.257 32.749 23.793 35.482 21.792 37.8 19.303 40.118 16.813 41.924 13.885 43.267 10.591 44.608 7.296 45.219 3.782 45.219 .073 45.219-3.587 44.56-7.053 43.267-10.322 41.997-13.617 40.167-16.521 37.849-19.034 35.53-21.523 32.749-23.549 29.576-24.939 26.526-26.403 22.987-27.136 19.156-27.136" fill="#1d1d1b"/>
<path transform="matrix(1,0,0,-1,684.4834,321.8027)" d="M0 0C-4.686-.122-8.688-1.391-12.152-3.831-15.618-6.271-18.059-9.614-19.449-13.86V-46.657H-26.331V6.076H-19.815V-6.589C-17.863-2.513-15.252 .659-11.909 2.904-8.614 5.223-5.052 6.369-1.27 6.369-.732 6.369-.293 6.296 .073 6.247V-.024H0Z" fill="#1d1d1b"/>
<path transform="matrix(1,0,0,-1,736.0703,368.46003)" d="M0 0-19.448 27.014-30.747 16.496V0H-37.629V73.867H-30.747V23.67L-1.146 52.611H6.638L-14.886 31.064 7.492-.024H0Z" fill="#1d1d1b"/>
</g>
</g>
</svg>
